<?xml version="1.0" encoding="UTF-8" standalone="no"?>
<!-- Created with Inkscape (http://www.inkscape.org/) -->

<svg
   width="100.5152mm"
   height="78.219727mm"
   viewBox="0 0 100.5152 78.219727"
   version="1.1"
   id="svg1"
   xml:space="preserve"
   xmlns:inkscape="http://www.inkscape.org/namespaces/inkscape"
   xmlns:sodipodi="http://sodipodi.sourceforge.net/DTD/sodipodi-0.dtd"
   xmlns="http://www.w3.org/2000/svg"
   xmlns:svg="http://www.w3.org/2000/svg"><sodipodi:namedview
     id="namedview1"
     pagecolor="#505050"
     bordercolor="#eeeeee"
     borderopacity="1"
     inkscape:showpageshadow="0"
     inkscape:pageopacity="0"
     inkscape:pagecheckerboard="0"
     inkscape:deskcolor="#505050"
     inkscape:document-units="mm"
     inkscape:export-bgcolor="#ffffffff" /><defs
     id="defs1"><inkscape:path-effect
       effect="fillet_chamfer"
       id="path-effect1"
       is_visible="true"
       lpeversion="1"
       nodesatellites_param="F,0,0,1,0,0,0,1 @ F,0,0,1,0,0,0,1 @ F,0,0,1,0,0,0,1 @ F,0,0,1,0,11.244308,0,1 @ F,0,0,1,0,39.907632,0,1 @ F,0,0,1,0,16.871621,0,1 @ F,0,0,1,0,34.755334,0,1 @ F,0,0,1,0,0,0,1"
       radius="0"
       unit="px"
       method="auto"
       mode="F"
       chamfer_steps="1"
       flexible="false"
       use_knot_distance="true"
       apply_no_radius="true"
       apply_with_radius="true"
       only_selected="false"
       hide_knots="false" /></defs><g
     inkscape:label="Layer 1"
     inkscape:groupmode="layer"
     id="layer1"
     transform="translate(-52.37367,-120.85732)"><g
       transform="matrix(0.03527778,0,0,-0.03527778,28.535088,236.74292)"
       fill="#000000"
       stroke="none"
       id="g8"
       style="fill:#550055;fill-opacity:1"><g
         id="g6"
         transform="translate(-65.010788,-325.05394)"
         inkscape:export-filename="uniByte-black.svg"
         inkscape:export-xdpi="96"
         inkscape:export-ydpi="96"><path
           d="m 1413,3600 c -30,-12 -38,-46 -19,-75 15,-22 24,-25 81,-25 57,0 66,3 80,24 20,30 6,71 -27,79 -32,9 -89,7 -115,-3 z"
           id="path1"
           style="fill:#550055;fill-opacity:1" /><path
           d="m 1630,3601 c -15,-4 -29,-18 -35,-35 -15,-43 19,-66 99,-66 69,0 86,-10 86,-51 0,-34 -32,-59 -75,-59 -37,0 -55,-16 -55,-46 0,-46 22,-54 155,-54 120,0 125,-1 140,-24 18,-27 7,-69 -20,-80 -9,-3 -108,-6 -220,-6 -220,0 -227,-2 -227,-56 0,-43 15,-49 140,-52 64,-2 123,-8 130,-14 15,-13 16,-60 0,-76 -8,-8 -50,-12 -124,-12 -105,0 -114,-1 -128,-22 -21,-30 -20,-44 4,-68 19,-19 33,-20 280,-20 246,0 260,-1 270,-19 14,-27 13,-47 -6,-65 -13,-14 -50,-16 -254,-16 -258,0 -270,-2 -270,-54 0,-48 26,-56 168,-56 129,0 132,0 148,-25 15,-23 15,-27 0,-50 -16,-24 -20,-25 -122,-25 -124,0 -144,-7 -144,-55 0,-24 6,-38 19,-45 11,-5 82,-10 160,-10 114,0 142,-3 155,-16 19,-18 20,-38 6,-65 -10,-17 -22,-19 -115,-19 -108,0 -154,-12 -156,-39 -4,-57 16,-71 107,-71 94,0 123,-25 94,-81 -10,-17 -23,-19 -153,-19 -156,0 -187,-9 -187,-55 0,-53 8,-55 304,-55 252,0 274,-1 289,-18 21,-23 21,-42 3,-68 -13,-18 -31,-19 -246,-24 -219,-5 -233,-6 -246,-25 -11,-16 -11,-25 -1,-45 l 13,-25 344,-3 c 302,-2 346,-4 362,-19 24,-21 23,-48 -2,-73 -19,-19 -64.1703,-16.8826 -316.151,-20 L 1784.8983,1697.2912 1758,1675 c -6.2912,-17.6456 1.4807,-41.1895 6,-50 l 33.6071,-25.6772 L 1989,1600 c 90.1319,0.3189 209,-2 224,-18 26,-29 21,-60 -13,-81 l -31,-18 58,-21 c 248,-92 578,-92 826,-2 154,57 290,162 380,295 48,70 129,256 146,333 8,37 11,279 11,787 v 735 h -234 -233 l -9,-728 -9,-728 -37,-76 c -65,-130 -196,-233 -329,-258 -104,-20 -209,-5 -309,42 -87,42 -185,154 -227,258 -17,41 -18,105 -23,765 l -5,720 -260,2 c -143,0 -271,-2 -285,-6 z m 1949,-603 c 0,-593 0,-602 -18,-548 -58,179 -186,327 -353,408 l -77,37 -1,353 v 352 h 225 225 z"
           id="path2"
           style="fill:#550055;fill-opacity:1"
           sodipodi:nodetypes="ccsssssccssccsscssccsssccsscsccscscsssccccccccssccccscccccccscccccccccccccccccccccc" /><path
           d="m 1113,3175 c -27,-19 -30,-57 -7,-79 13,-13 43,-16 168,-16 167,0 179,4 179,56 0,45 -14,49 -171,52 -122,2 -151,0 -169,-13 z"
           id="path3"
           style="fill:#550055;fill-opacity:1" /><path
           d="m 752,2958 c -15,-15 -15,-61 0,-76 16,-16 140,-16 156,0 7,7 12,24 12,38 0,14 -5,31 -12,38 -16,16 -140,16 -156,0 z"
           id="path4"
           style="fill:#550055;fill-opacity:1" /><path
           d="m 1002,2958 c -15,-15 -15,-61 0,-76 8,-8 65,-12 190,-12 l 138.5036,0.4428 a 222.6392,222.6392 3.0744404 0 1 22.4277,1.2047 c 9.5363,0.9965 31.227,14.1664 38.2041,34.3859 0.063,0.1814 0.1241,0.3623 0.1847,0.5427 2.8833,8.5989 -2.6516,23.0608 -7.0389,31.2813 l -0.7902,1.4807 A 57.944013,57.944013 149.0443 0 1 1332.3716,2970 H 1192 c -125,0 -182,-4 -190,-12 z"
           id="path5"
           style="fill:#550055;fill-opacity:1"
           inkscape:path-effect="#path-effect1"
           inkscape:original-d="m 1002,2958 c -15,-15 -15,-61 0,-76 8,-8 65,-12 190,-12 l 149.7479,0.4788 28.4501,2.973 c 2.5499,-4.2945 29.3654,37.5346 22.027,49.5211 L 1367.1269,2970 H 1192 c -125,0 -182,-4 -190,-12 z"
           sodipodi:nodetypes="sssccccss" /><path
           d="m 1228,2735 c -8,-19 -8,-31 0,-50 11,-24 14,-25 115,-25 111,0 127,6 127,50 0,44 -16,50 -127,50 -101,0 -104,-1 -115,-25 z"
           id="path6"
           style="fill:#550055;fill-opacity:1" /><path
           d="m 1058,2329 c -26,-15 -23,-64 4,-83 19,-13 60,-16 243,-16 183,0 224,3 243,16 28,20 30,69 3,84 -26,13 -470,13 -493,-1 z"
           id="path7"
           style="fill:#550055;fill-opacity:1" /><path
           d="m 1252.7612,2083.235 c 0.1948,-43.0276 -4.5548,-63.1087 127.2388,-63.235 74.2842,-0.071 92.2949,5.5713 94.379,66.0493 1.0151,29.4561 -24.2773,39.6911 -103.3089,40.5963 -78.151,-0.063 -118.4237,-18.0642 -118.3089,-43.4106 z"
           id="path8"
           style="fill:#550055;fill-opacity:1"
           sodipodi:nodetypes="ssscs" /><g
           id="g5"
           transform="matrix(1.0769269,0,0,1.0466705,-240.78472,-168.10279)"><text
             xml:space="preserve"
             style="font-size:199.506px;fill:#550055;fill-opacity:1;stroke-width:1885.1"
             x="3173.3884"
             y="-3340.2888"
             id="text1"
             transform="scale(1,-1)"><tspan
               sodipodi:role="line"
               id="tspan1"
               style="stroke-width:1885.09"
               x="3173.3884"
               y="-3340.2888">1</tspan></text><text
             xml:space="preserve"
             style="font-size:199.506px;fill:#550055;fill-opacity:1;stroke-width:1885.1"
             x="3391.7439"
             y="-3340.2888"
             id="text2"
             transform="scale(1,-1)"><tspan
               sodipodi:role="line"
               id="tspan2"
               style="stroke-width:1885.09"
               x="3391.7439"
               y="-3340.2888">1</tspan></text><text
             xml:space="preserve"
             style="font-size:199.506px;fill:#550055;fill-opacity:1;stroke-width:1885.1"
             x="3393.6592"
             y="-3091.2869"
             id="text3"
             transform="scale(1,-1)"><tspan
               sodipodi:role="line"
               id="tspan3"
               style="stroke-width:1885.09"
               x="3393.6592"
               y="-3091.2869">1</tspan></text><text
             xml:space="preserve"
             style="font-size:199.506px;fill:#550055;fill-opacity:1;stroke-width:1885.1"
             x="3179.8186"
             y="-3088.9443"
             id="text5"
             transform="scale(1,-1)"><tspan
               sodipodi:role="line"
               id="tspan5"
               style="stroke-width:1885.09"
               x="3179.8186"
               y="-3088.9443">0</tspan></text></g></g></g></g></svg>
